<?xml version="1.0" encoding="UTF-8" standalone="no"?>
<svg
   xmlns:dc="http://purl.org/dc/elements/1.1/"
   xmlns:cc="http://creativecommons.org/ns#"
   xmlns:rdf="http://www.w3.org/1999/02/22-rdf-syntax-ns#"
   xmlns:svg="http://www.w3.org/2000/svg"
   xmlns="http://www.w3.org/2000/svg"
   xmlns:sodipodi="http://sodipodi.sourceforge.net/DTD/sodipodi-0.dtd"
   xmlns:inkscape="http://www.inkscape.org/namespaces/inkscape"
   width="316.9852mm"
   height="199.88724mm"
   viewBox="0 0 316.9852 199.88724"
   version="1.1"
   id="svg8"
   inkscape:version="1.0.2 (1c82d34291, 2021-03-05)"
   sodipodi:docname="ip-address-01.svg">
  <defs
     id="defs2">
    <marker
       style="overflow:visible"
       id="marker1571"
       refX="0"
       refY="0"
       orient="auto"
       inkscape:stockid="Arrow2Mend"
       inkscape:isstock="true">
      <path
         transform="scale(-0.6)"
         d="M 8.7185878,4.0337352 -2.2072895,0.01601326 8.7185884,-4.0017078 c -1.7454984,2.3720609 -1.7354408,5.6174519 -6e-7,8.035443 z"
         style="fill:#000000;fill-opacity:1;fill-rule:evenodd;stroke:#000000;stroke-width:0.625;stroke-linejoin:round;stroke-opacity:1"
         id="path1569" />
    </marker>
    <marker
       style="overflow:visible"
       id="marker1485"
       refX="0"
       refY="0"
       orient="auto"
       inkscape:stockid="Arrow2Mend"
       inkscape:isstock="true"
       inkscape:collect="always">
      <path
         transform="scale(-0.6)"
         d="M 8.7185878,4.0337352 -2.2072895,0.01601326 8.7185884,-4.0017078 c -1.7454984,2.3720609 -1.7354408,5.6174519 -6e-7,8.035443 z"
         style="fill:#000000;fill-opacity:1;fill-rule:evenodd;stroke:#000000;stroke-width:0.625;stroke-linejoin:round;stroke-opacity:1"
         id="path1483" />
    </marker>
    <marker
       style="overflow:visible"
       id="marker1407"
       refX="0"
       refY="0"
       orient="auto"
       inkscape:stockid="Arrow2Mend"
       inkscape:isstock="true"
       inkscape:collect="always">
      <path
         transform="scale(-0.6)"
         d="M 8.7185878,4.0337352 -2.2072895,0.01601326 8.7185884,-4.0017078 c -1.7454984,2.3720609 -1.7354408,5.6174519 -6e-7,8.035443 z"
         style="fill:#000000;fill-opacity:1;fill-rule:evenodd;stroke:#000000;stroke-width:0.625;stroke-linejoin:round;stroke-opacity:1"
         id="path1405" />
    </marker>
    <marker
       style="overflow:visible"
       id="marker1343"
       refX="0"
       refY="0"
       orient="auto"
       inkscape:stockid="Arrow2Mend"
       inkscape:isstock="true"
       inkscape:collect="always">
      <path
         transform="scale(-0.6)"
         d="M 8.7185878,4.0337352 -2.2072895,0.01601326 8.7185884,-4.0017078 c -1.7454984,2.3720609 -1.7354408,5.6174519 -6e-7,8.035443 z"
         style="fill:#000000;fill-opacity:1;fill-rule:evenodd;stroke:#000000;stroke-width:0.625;stroke-linejoin:round;stroke-opacity:1"
         id="path1341" />
    </marker>
    <rect
       x="177.8306"
       y="86.391815"
       width="64.071671"
       height="17.923912"
       id="rect1327" />
    <rect
       x="177.95683"
       y="86.617371"
       width="70.416336"
       height="17.624098"
       id="rect1321" />
    <marker
       style="overflow:visible"
       id="marker1261"
       refX="0"
       refY="0"
       orient="auto"
       inkscape:stockid="Arrow2Mend"
       inkscape:isstock="true">
      <path
         transform="scale(-0.6)"
         d="M 8.7185878,4.0337352 -2.2072895,0.01601326 8.7185884,-4.0017078 c -1.7454984,2.3720609 -1.7354408,5.6174519 -6e-7,8.035443 z"
         style="fill:#000000;fill-opacity:1;fill-rule:evenodd;stroke:#000000;stroke-width:0.625;stroke-linejoin:round;stroke-opacity:1"
         id="path1259" />
    </marker>
    <marker
       style="overflow:visible"
       id="marker1213"
       refX="0"
       refY="0"
       orient="auto"
       inkscape:stockid="Arrow2Mend"
       inkscape:isstock="true"
       inkscape:collect="always">
      <path
         transform="scale(-0.6)"
         d="M 8.7185878,4.0337352 -2.2072895,0.01601326 8.7185884,-4.0017078 c -1.7454984,2.3720609 -1.7354408,5.6174519 -6e-7,8.035443 z"
         style="fill:#000000;fill-opacity:1;fill-rule:evenodd;stroke:#000000;stroke-width:0.625;stroke-linejoin:round;stroke-opacity:1"
         id="path1211" />
    </marker>
    <marker
       style="overflow:visible"
       id="marker1173"
       refX="0"
       refY="0"
       orient="auto"
       inkscape:stockid="Arrow2Mend"
       inkscape:isstock="true"
       inkscape:collect="always">
      <path
         transform="scale(-0.6)"
         d="M 8.7185878,4.0337352 -2.2072895,0.01601326 8.7185884,-4.0017078 c -1.7454984,2.3720609 -1.7354408,5.6174519 -6e-7,8.035443 z"
         style="fill:#000000;fill-opacity:1;fill-rule:evenodd;stroke:#000000;stroke-width:0.625;stroke-linejoin:round;stroke-opacity:1"
         id="path1171" />
    </marker>
    <marker
       style="overflow:visible"
       id="Arrow2Mend"
       refX="0"
       refY="0"
       orient="auto"
       inkscape:stockid="Arrow2Mend"
       inkscape:isstock="true"
       inkscape:collect="always">
      <path
         transform="scale(-0.6)"
         d="M 8.7185878,4.0337352 -2.2072895,0.01601326 8.7185884,-4.0017078 c -1.7454984,2.3720609 -1.7354408,5.6174519 -6e-7,8.035443 z"
         style="fill:#000000;fill-opacity:1;fill-rule:evenodd;stroke:#000000;stroke-width:0.625;stroke-linejoin:round;stroke-opacity:1"
         id="path902" />
    </marker>
  </defs>
  <sodipodi:namedview
     id="base"
     pagecolor="#ffffff"
     bordercolor="#666666"
     borderopacity="1.0"
     inkscape:pageopacity="0.0"
     inkscape:pageshadow="2"
     inkscape:zoom="0.7"
     inkscape:cx="756.1827"
     inkscape:cy="441.73461"
     inkscape:document-units="mm"
     inkscape:current-layer="layer1"
     inkscape:document-rotation="0"
     showgrid="false"
     inkscape:window-width="1920"
     inkscape:window-height="1043"
     inkscape:window-x="1920"
     inkscape:window-y="0"
     inkscape:window-maximized="1"
     showguides="true"
     inkscape:guide-bbox="true"
     fit-margin-top="0"
     fit-margin-left="0"
     fit-margin-right="0"
     fit-margin-bottom="0" />
  <metadata
     id="metadata5">
    <rdf:RDF>
      <cc:Work
         rdf:about="">
        <dc:format>image/svg+xml</dc:format>
        <dc:type
           rdf:resource="http://purl.org/dc/dcmitype/StillImage" />
        <dc:title></dc:title>
      </cc:Work>
    </rdf:RDF>
  </metadata>
  <g
     inkscape:groupmode="layer"
     id="layer2"
     inkscape:label="back"
     transform="translate(52.673878,-18.297897)">
    <rect
       style="fill:#ffffff;stroke:none;stroke-width:0.79375;stroke-linecap:round;stroke-miterlimit:4;stroke-dasharray:none"
       id="rect1670"
       width="316.9852"
       height="199.88724"
       x="-52.673878"
       y="18.297897" />
  </g>
  <g
     inkscape:label="Layer 1"
     inkscape:groupmode="layer"
     id="layer1"
     transform="translate(52.673878,-18.297897)">
    <g
       aria-label="30.50.100.1"
       id="text835"
       style="font-style:normal;font-weight:normal;font-size:19.9377px;line-height:1.25;font-family:sans-serif;fill:#008000;fill-opacity:1;stroke:none;stroke-width:0.264583">
      <path
         d="m 42.317975,180.31665 q 1.411605,0.30179 2.200157,1.25584 0.798286,0.95405 0.798286,2.35592 0,2.15148 -1.479751,3.32944 -1.479751,1.17796 -4.205608,1.17796 -0.91511,0 -1.88863,-0.18497 -0.963786,-0.17523 -1.995717,-0.53544 v -1.89836 q 0.817757,0.47702 1.791277,0.7204 0.973521,0.24338 2.034658,0.24338 1.849689,0 2.813475,-0.73014 0.97352,-0.73014 0.97352,-2.12227 0,-1.28505 -0.905374,-2.00545 -0.895639,-0.73014 -2.501948,-0.73014 h -1.693925 v -1.61605 h 1.771807 q 1.450546,0 2.219627,-0.57437 0.769081,-0.58412 0.769081,-1.67446 0,-1.11955 -0.798287,-1.7134 -0.788551,-0.60358 -2.268303,-0.60358 -0.808022,0 -1.732866,0.17523 -0.924845,0.17524 -2.034658,0.54518 v -1.75234 q 1.119549,-0.31153 2.093069,-0.46729 0.983256,-0.15576 1.849689,-0.15576 2.239097,0 3.543615,1.02219 1.304517,1.01246 1.304517,2.74533 0,1.20717 -0.691199,2.04439 -0.6912,0.8275 -1.966512,1.14876 z"
         style="fill:#008000;stroke-width:0.264583"
         id="path1904" />
      <path
         d="m 53.260346,174.91361 q -1.518692,0 -2.287773,1.49922 -0.759346,1.48949 -0.759346,4.48793 0,2.98871 0.759346,4.48793 0.769081,1.48949 2.287773,1.48949 1.528427,0 2.287773,-1.48949 0.769082,-1.49922 0.769082,-4.48793 0,-2.99844 -0.769082,-4.48793 -0.759346,-1.49922 -2.287773,-1.49922 z m 0,-1.55763 q 2.443537,0 3.728584,1.9373 1.294782,1.92757 1.294782,5.60748 0,3.67017 -1.294782,5.60748 -1.285047,1.92757 -3.728584,1.92757 -2.443536,0 -3.738319,-1.92757 -1.285047,-1.93731 -1.285047,-5.60748 0,-3.67991 1.285047,-5.60748 1.294783,-1.9373 3.738319,-1.9373 z"
         style="fill:#008000;stroke-width:0.264583"
         id="path1906" />
      <path
         d="m 61.749445,185.68075 h 2.054129 v 2.47274 h -2.054129 z"
         style="fill:#008000;stroke-width:0.264583"
         id="path1908" />
      <path
         d="m 68.116271,173.61883 h 7.720017 v 1.65498 h -5.919004 v 3.56309 q 0.428349,-0.14603 0.856698,-0.21418 0.428349,-0.0779 0.856698,-0.0779 2.433801,0 3.855141,1.33372 1.42134,1.33373 1.42134,3.61176 0,2.34619 -1.460281,3.65071 -1.460281,1.29478 -4.117992,1.29478 -0.915109,0 -1.869159,-0.15576 -0.944315,-0.15577 -1.956776,-0.46729 v -1.97625 q 0.876168,0.47702 1.810748,0.71067 0.93458,0.23364 1.976247,0.23364 1.68419,0 2.667446,-0.8859 0.983256,-0.8859 0.983256,-2.4046 0,-1.51869 -0.983256,-2.40459 -0.983256,-0.8859 -2.667446,-0.8859 -0.788552,0 -1.577104,0.17523 -0.778816,0.17523 -1.596573,0.54517 z"
         style="fill:#008000;stroke-width:0.264583"
         id="path1910" />
      <path
         d="m 84.997115,174.91361 q -1.518692,0 -2.287773,1.49922 -0.759346,1.48949 -0.759346,4.48793 0,2.98871 0.759346,4.48793 0.769081,1.48949 2.287773,1.48949 1.528427,0 2.287773,-1.48949 0.769081,-1.49922 0.769081,-4.48793 0,-2.99844 -0.769081,-4.48793 -0.759346,-1.49922 -2.287773,-1.49922 z m 0,-1.55763 q 2.443536,0 3.728583,1.9373 1.294783,1.92757 1.294783,5.60748 0,3.67017 -1.294783,5.60748 -1.285047,1.92757 -3.728583,1.92757 -2.443537,0 -3.738319,-1.92757 -1.285047,-1.93731 -1.285047,-5.60748 0,-3.67991 1.285047,-5.60748 1.294782,-1.9373 3.738319,-1.9373 z"
         style="fill:#008000;stroke-width:0.264583"
         id="path1912" />
      <path
         d="m 93.486216,185.68075 h 2.054128 v 2.47274 h -2.054128 z"
         style="fill:#008000;stroke-width:0.264583"
         id="path1914" />
      <path
         d="m 100.1743,186.4985 h 3.21262 v -11.0884 l -3.494938,0.70094 v -1.79128 l 3.475468,-0.70093 h 1.96651 v 12.87967 h 3.21262 v 1.65499 h -8.37228 z"
         style="fill:#008000;stroke-width:0.264583"
         id="path1916" />
      <path
         d="m 116.73388,174.91361 q -1.51869,0 -2.28777,1.49922 -0.75935,1.48949 -0.75935,4.48793 0,2.98871 0.75935,4.48793 0.76908,1.48949 2.28777,1.48949 1.52843,0 2.28777,-1.48949 0.76909,-1.49922 0.76909,-4.48793 0,-2.99844 -0.76909,-4.48793 -0.75934,-1.49922 -2.28777,-1.49922 z m 0,-1.55763 q 2.44354,0 3.72859,1.9373 1.29478,1.92757 1.29478,5.60748 0,3.67017 -1.29478,5.60748 -1.28505,1.92757 -3.72859,1.92757 -2.44353,0 -3.73832,-1.92757 -1.28504,-1.93731 -1.28504,-5.60748 0,-3.67991 1.28504,-5.60748 1.29479,-1.9373 3.73832,-1.9373 z"
         style="fill:#008000;stroke-width:0.264583"
         id="path1918" />
      <path
         d="m 129.42859,174.91361 q -1.51869,0 -2.28777,1.49922 -0.75935,1.48949 -0.75935,4.48793 0,2.98871 0.75935,4.48793 0.76908,1.48949 2.28777,1.48949 1.52843,0 2.28777,-1.48949 0.76909,-1.49922 0.76909,-4.48793 0,-2.99844 -0.76909,-4.48793 -0.75934,-1.49922 -2.28777,-1.49922 z m 0,-1.55763 q 2.44354,0 3.72859,1.9373 1.29478,1.92757 1.29478,5.60748 0,3.67017 -1.29478,5.60748 -1.28505,1.92757 -3.72859,1.92757 -2.44354,0 -3.73832,-1.92757 -1.28504,-1.93731 -1.28504,-5.60748 0,-3.67991 1.28504,-5.60748 1.29478,-1.9373 3.73832,-1.9373 z"
         style="fill:#008000;stroke-width:0.264583"
         id="path1920" />
      <path
         d="m 137.91769,185.68075 h 2.05413 v 2.47274 h -2.05413 z"
         style="fill:#008000;stroke-width:0.264583"
         id="path1922" />
      <path
         d="m 144.60578,186.4985 h 3.21261 v -11.0884 l -3.49494,0.70094 v -1.79128 l 3.47547,-0.70093 h 1.96651 v 12.87967 h 3.21262 v 1.65499 h -8.37227 z"
         style="fill:#008000;stroke-width:0.264583"
         id="path1924" />
    </g>
    <g
       aria-label="00011110001100100110010000000001"
       id="text839"
       style="font-style:normal;font-weight:normal;font-size:10.5833px;line-height:1.25;font-family:sans-serif;fill:#0000ff;fill-opacity:1;stroke:none;stroke-width:0.264583">
      <path
         d="m -7.8692238,57.066304 q -0.8061498,0 -1.2143923,0.795815 -0.4030749,0.790646 -0.4030749,2.382275 0,1.586462 0.4030749,2.382276 0.4082425,0.790647 1.2143923,0.790647 0.8113174,0 1.2143923,-0.790647 0.4082425,-0.795814 0.4082425,-2.382276 0,-1.591629 -0.4082425,-2.382275 -0.4030749,-0.795815 -1.2143923,-0.795815 z m 0,-0.82682 q 1.2970743,0 1.979201,1.028357 0.6872944,1.023191 0.6872944,2.976553 0,1.948196 -0.6872944,2.976554 -0.6821267,1.02319 -1.979201,1.02319 -1.2970743,0 -1.9843687,-1.02319 -0.6821265,-1.028358 -0.6821265,-2.976554 0,-1.953362 0.6821265,-2.976553 0.6872944,-1.028357 1.9843687,-1.028357 z"
         style="fill:#0000ff;stroke-width:0.264583"
         id="path1768" />
      <path
         d="m -1.1306383,57.066304 q -0.8061498,0 -1.2143923,0.795815 -0.4030749,0.790646 -0.4030749,2.382275 0,1.586462 0.4030749,2.382276 0.4082425,0.790647 1.2143923,0.790647 0.81131736,0 1.21439225,-0.790647 0.40824251,-0.795814 0.40824251,-2.382276 0,-1.591629 -0.40824251,-2.382275 -0.40307489,-0.795815 -1.21439225,-0.795815 z m 0,-0.82682 q 1.29707428,0 1.97920101,1.028357 0.68729439,1.023191 0.68729439,2.976553 0,1.948196 -0.68729439,2.976554 -0.68212673,1.02319 -1.97920101,1.02319 -1.2970744,0 -1.9843687,-1.02319 -0.6821268,-1.028358 -0.6821268,-2.976554 0,-1.953362 0.6821268,-2.976553 0.6872943,-1.028357 1.9843687,-1.028357 z"
         style="fill:#0000ff;stroke-width:0.264583"
         id="path1770" />
      <path
         d="m 5.6079471,57.066304 q -0.8061497,0 -1.2143923,0.795815 -0.4030749,0.790646 -0.4030749,2.382275 0,1.586462 0.4030749,2.382276 0.4082426,0.790647 1.2143923,0.790647 0.8113174,0 1.2143923,-0.790647 0.4082425,-0.795814 0.4082425,-2.382276 0,-1.591629 -0.4082425,-2.382275 -0.4030749,-0.795815 -1.2143923,-0.795815 z m 0,-0.82682 q 1.2970743,0 1.9792011,1.028357 0.6872943,1.023191 0.6872943,2.976553 0,1.948196 -0.6872943,2.976554 -0.6821268,1.02319 -1.9792011,1.02319 -1.2970743,0 -1.9843687,-1.02319 -0.6821267,-1.028358 -0.6821267,-2.976554 0,-1.953362 0.6821267,-2.976553 0.6872944,-1.028357 1.9843687,-1.028357 z"
         style="fill:#0000ff;stroke-width:0.264583"
         id="path1772" />
      <path
         d="m 10.294984,63.21578 h 1.705317 v -5.885927 l -1.855178,0.372069 v -0.950843 l 1.844842,-0.372069 h 1.043861 v 6.83677 h 1.705317 v 0.878496 h -4.444159 z"
         style="fill:#0000ff;stroke-width:0.264583"
         id="path1774" />
      <path
         d="m 17.03357,63.21578 h 1.705317 v -5.885927 l -1.855178,0.372069 v -0.950843 l 1.844843,-0.372069 h 1.04386 v 6.83677 h 1.705317 v 0.878496 H 17.03357 Z"
         style="fill:#0000ff;stroke-width:0.264583"
         id="path1776" />
      <path
         d="m 23.772157,63.21578 h 1.705317 v -5.885927 l -1.855179,0.372069 v -0.950843 l 1.844843,-0.372069 h 1.043861 v 6.83677 h 1.705317 v 0.878496 h -4.444159 z"
         style="fill:#0000ff;stroke-width:0.264583"
         id="path1778" />
      <path
         d="m 30.510739,63.21578 h 1.705317 v -5.885927 l -1.855178,0.372069 v -0.950843 l 1.844843,-0.372069 h 1.04386 v 6.83677 h 1.705317 v 0.878496 h -4.444159 z"
         style="fill:#0000ff;stroke-width:0.264583"
         id="path1780" />
      <path
         d="m 39.300874,57.066304 q -0.80615,0 -1.214393,0.795815 -0.403075,0.790646 -0.403075,2.382275 0,1.586462 0.403075,2.382276 0.408243,0.790647 1.214393,0.790647 0.811317,0 1.214392,-0.790647 0.408242,-0.795814 0.408242,-2.382276 0,-1.591629 -0.408242,-2.382275 -0.403075,-0.795815 -1.214392,-0.795815 z m 0,-0.82682 q 1.297074,0 1.979201,1.028357 0.687294,1.023191 0.687294,2.976553 0,1.948196 -0.687294,2.976554 -0.682127,1.02319 -1.979201,1.02319 -1.297075,0 -1.984369,-1.02319 -0.682127,-1.028358 -0.682127,-2.976554 0,-1.953362 0.682127,-2.976553 0.687294,-1.028357 1.984369,-1.028357 z"
         style="fill:#0000ff;stroke-width:0.264583"
         id="path1782" />
      <path
         d="m 46.03946,57.066304 q -0.80615,0 -1.214392,0.795815 -0.403075,0.790646 -0.403075,2.382275 0,1.586462 0.403075,2.382276 0.408242,0.790647 1.214392,0.790647 0.811317,0 1.214392,-0.790647 0.408243,-0.795814 0.408243,-2.382276 0,-1.591629 -0.408243,-2.382275 -0.403075,-0.795815 -1.214392,-0.795815 z m 0,-0.82682 q 1.297074,0 1.979201,1.028357 0.687294,1.023191 0.687294,2.976553 0,1.948196 -0.687294,2.976554 -0.682127,1.02319 -1.979201,1.02319 -1.297074,0 -1.984369,-1.02319 -0.682126,-1.028358 -0.682126,-2.976554 0,-1.953362 0.682126,-2.976553 0.687295,-1.028357 1.984369,-1.028357 z"
         style="fill:#0000ff;stroke-width:0.264583"
         id="path1784" />
      <path
         d="m 52.778046,57.066304 q -0.806149,0 -1.214392,0.795815 -0.403075,0.790646 -0.403075,2.382275 0,1.586462 0.403075,2.382276 0.408243,0.790647 1.214392,0.790647 0.811318,0 1.214393,-0.790647 0.408242,-0.795814 0.408242,-2.382276 0,-1.591629 -0.408242,-2.382275 -0.403075,-0.795815 -1.214393,-0.795815 z m 0,-0.82682 q 1.297075,0 1.979201,1.028357 0.687295,1.023191 0.687295,2.976553 0,1.948196 -0.687295,2.976554 -0.682126,1.02319 -1.979201,1.02319 -1.297074,0 -1.984368,-1.02319 -0.682127,-1.028358 -0.682127,-2.976554 0,-1.953362 0.682127,-2.976553 0.687294,-1.028357 1.984368,-1.028357 z"
         style="fill:#0000ff;stroke-width:0.264583"
         id="path1786" />
      <path
         d="m 57.465085,63.21578 h 1.705317 v -5.885927 l -1.855178,0.372069 v -0.950843 l 1.844843,-0.372069 h 1.04386 v 6.83677 h 1.705317 v 0.878496 h -4.444159 z"
         style="fill:#0000ff;stroke-width:0.264583"
         id="path1788" />
      <path
         d="m 64.203671,63.21578 h 1.705317 v -5.885927 l -1.855178,0.372069 v -0.950843 l 1.844843,-0.372069 h 1.043861 v 6.83677 h 1.705316 v 0.878496 h -4.444159 z"
         style="fill:#0000ff;stroke-width:0.264583"
         id="path1790" />
      <path
         d="m 72.993798,57.066304 q -0.80615,0 -1.214392,0.795815 -0.403075,0.790646 -0.403075,2.382275 0,1.586462 0.403075,2.382276 0.408242,0.790647 1.214392,0.790647 0.811317,0 1.214392,-0.790647 0.408243,-0.795814 0.408243,-2.382276 0,-1.591629 -0.408243,-2.382275 -0.403075,-0.795815 -1.214392,-0.795815 z m 0,-0.82682 q 1.297074,0 1.979201,1.028357 0.687294,1.023191 0.687294,2.976553 0,1.948196 -0.687294,2.976554 -0.682127,1.02319 -1.979201,1.02319 -1.297074,0 -1.984369,-1.02319 -0.682126,-1.028358 -0.682126,-2.976554 0,-1.953362 0.682126,-2.976553 0.687295,-1.028357 1.984369,-1.028357 z"
         style="fill:#0000ff;stroke-width:0.264583"
         id="path1792" />
      <path
         d="m 79.732384,57.066304 q -0.806149,0 -1.214392,0.795815 -0.403075,0.790646 -0.403075,2.382275 0,1.586462 0.403075,2.382276 0.408243,0.790647 1.214392,0.790647 0.811318,0 1.214393,-0.790647 0.408242,-0.795814 0.408242,-2.382276 0,-1.591629 -0.408242,-2.382275 -0.403075,-0.795815 -1.214393,-0.795815 z m 0,-0.82682 q 1.297075,0 1.979202,1.028357 0.687294,1.023191 0.687294,2.976553 0,1.948196 -0.687294,2.976554 -0.682127,1.02319 -1.979202,1.02319 -1.297074,0 -1.984368,-1.02319 -0.682127,-1.028358 -0.682127,-2.976554 0,-1.953362 0.682127,-2.976553 0.687294,-1.028357 1.984368,-1.028357 z"
         style="fill:#0000ff;stroke-width:0.264583"
         id="path1794" />
      <path
         d="m 84.419423,63.21578 h 1.705317 v -5.885927 l -1.855178,0.372069 v -0.950843 l 1.844843,-0.372069 h 1.04386 v 6.83677 h 1.705317 v 0.878496 h -4.444159 z"
         style="fill:#0000ff;stroke-width:0.264583"
         id="path1796" />
      <path
         d="m 93.209557,57.066304 q -0.806149,0 -1.214392,0.795815 -0.403075,0.790646 -0.403075,2.382275 0,1.586462 0.403075,2.382276 0.408243,0.790647 1.214392,0.790647 0.811318,0 1.214393,-0.790647 0.408242,-0.795814 0.408242,-2.382276 0,-1.591629 -0.408242,-2.382275 -0.403075,-0.795815 -1.214393,-0.795815 z m 0,-0.82682 q 1.297075,0 1.979201,1.028357 0.687295,1.023191 0.687295,2.976553 0,1.948196 -0.687295,2.976554 -0.682126,1.02319 -1.979201,1.02319 -1.297074,0 -1.984368,-1.02319 -0.682127,-1.028358 -0.682127,-2.976554 0,-1.953362 0.682127,-2.976553 0.687294,-1.028357 1.984368,-1.028357 z"
         style="fill:#0000ff;stroke-width:0.264583"
         id="path1798" />
      <path
         d="m 99.948144,57.066304 q -0.80615,0 -1.214393,0.795815 -0.403074,0.790646 -0.403074,2.382275 0,1.586462 0.403074,2.382276 0.408243,0.790647 1.214393,0.790647 0.811316,0 1.214396,-0.790647 0.40824,-0.795814 0.40824,-2.382276 0,-1.591629 -0.40824,-2.382275 -0.40308,-0.795815 -1.214396,-0.795815 z m 0,-0.82682 q 1.297076,0 1.979196,1.028357 0.6873,1.023191 0.6873,2.976553 0,1.948196 -0.6873,2.976554 -0.68212,1.02319 -1.979196,1.02319 -1.297075,0 -1.984369,-1.02319 -0.682127,-1.028358 -0.682127,-2.976554 0,-1.953362 0.682127,-2.976553 0.687294,-1.028357 1.984369,-1.028357 z"
         style="fill:#0000ff;stroke-width:0.264583"
         id="path1800" />
      <path
         d="m 104.63518,63.21578 h 1.70532 v -5.885927 l -1.85518,0.372069 v -0.950843 l 1.84484,-0.372069 h 1.04386 v 6.83677 h 1.70532 v 0.878496 h -4.44416 z"
         style="fill:#0000ff;stroke-width:0.264583"
         id="path1802" />
      <path
         d="m 111.37377,63.21578 h 1.70532 v -5.885927 l -1.85518,0.372069 v -0.950843 l 1.84484,-0.372069 h 1.04386 v 6.83677 h 1.70532 v 0.878496 h -4.44416 z"
         style="fill:#0000ff;stroke-width:0.264583"
         id="path1804" />
      <path
         d="m 120.1639,57.066304 q -0.80615,0 -1.21439,0.795815 -0.40307,0.790646 -0.40307,2.382275 0,1.586462 0.40307,2.382276 0.40824,0.790647 1.21439,0.790647 0.81132,0 1.2144,-0.790647 0.40824,-0.795814 0.40824,-2.382276 0,-1.591629 -0.40824,-2.382275 -0.40308,-0.795815 -1.2144,-0.795815 z m 0,-0.82682 q 1.29708,0 1.9792,1.028357 0.6873,1.023191 0.6873,2.976553 0,1.948196 -0.6873,2.976554 -0.68212,1.02319 -1.9792,1.02319 -1.29707,0 -1.98437,-1.02319 -0.68212,-1.028358 -0.68212,-2.976554 0,-1.953362 0.68212,-2.976553 0.6873,-1.028357 1.98437,-1.028357 z"
         style="fill:#0000ff;stroke-width:0.264583"
         id="path1806" />
      <path
         d="m 126.90249,57.066304 q -0.80615,0 -1.21439,0.795815 -0.40308,0.790646 -0.40308,2.382275 0,1.586462 0.40308,2.382276 0.40824,0.790647 1.21439,0.790647 0.81132,0 1.21439,-0.790647 0.40824,-0.795814 0.40824,-2.382276 0,-1.591629 -0.40824,-2.382275 -0.40307,-0.795815 -1.21439,-0.795815 z m 0,-0.82682 q 1.29707,0 1.9792,1.028357 0.68729,1.023191 0.68729,2.976553 0,1.948196 -0.68729,2.976554 -0.68213,1.02319 -1.9792,1.02319 -1.29707,0 -1.98437,-1.02319 -0.68213,-1.028358 -0.68213,-2.976554 0,-1.953362 0.68213,-2.976553 0.6873,-1.028357 1.98437,-1.028357 z"
         style="fill:#0000ff;stroke-width:0.264583"
         id="path1808" />
      <path
         d="m 131.58953,63.21578 h 1.70531 v -5.885927 l -1.85517,0.372069 v -0.950843 l 1.84484,-0.372069 h 1.04386 v 6.83677 h 1.70532 v 0.878496 h -4.44416 z"
         style="fill:#0000ff;stroke-width:0.264583"
         id="path1810" />
      <path
         d="m 140.37966,57.066304 q -0.80615,0 -1.21439,0.795815 -0.40307,0.790646 -0.40307,2.382275 0,1.586462 0.40307,2.382276 0.40824,0.790647 1.21439,0.790647 0.81132,0 1.21439,-0.790647 0.40825,-0.795814 0.40825,-2.382276 0,-1.591629 -0.40825,-2.382275 -0.40307,-0.795815 -1.21439,-0.795815 z m 0,-0.82682 q 1.29708,0 1.9792,1.028357 0.6873,1.023191 0.6873,2.976553 0,1.948196 -0.6873,2.976554 -0.68212,1.02319 -1.9792,1.02319 -1.29707,0 -1.98437,-1.02319 -0.68212,-1.028358 -0.68212,-2.976554 0,-1.953362 0.68212,-2.976553 0.6873,-1.028357 1.98437,-1.028357 z"
         style="fill:#0000ff;stroke-width:0.264583"
         id="path1812" />
      <path
         d="m 147.11825,57.066304 q -0.80615,0 -1.21439,0.795815 -0.40308,0.790646 -0.40308,2.382275 0,1.586462 0.40308,2.382276 0.40824,0.790647 1.21439,0.790647 0.81132,0 1.21439,-0.790647 0.40824,-0.795814 0.40824,-2.382276 0,-1.591629 -0.40824,-2.382275 -0.40307,-0.795815 -1.21439,-0.795815 z m 0,-0.82682 q 1.29707,0 1.9792,1.028357 0.68729,1.023191 0.68729,2.976553 0,1.948196 -0.68729,2.976554 -0.68213,1.02319 -1.9792,1.02319 -1.29708,0 -1.98437,-1.02319 -0.68213,-1.028358 -0.68213,-2.976554 0,-1.953362 0.68213,-2.976553 0.68729,-1.028357 1.98437,-1.028357 z"
         style="fill:#0000ff;stroke-width:0.264583"
         id="path1814" />
      <path
         d="m 153.85682,57.066304 q -0.80615,0 -1.21439,0.795815 -0.40308,0.790646 -0.40308,2.382275 0,1.586462 0.40308,2.382276 0.40824,0.790647 1.21439,0.790647 0.81132,0 1.21439,-0.790647 0.40824,-0.795814 0.40824,-2.382276 0,-1.591629 -0.40824,-2.382275 -0.40307,-0.795815 -1.21439,-0.795815 z m 0,-0.82682 q 1.29707,0 1.9792,1.028357 0.6873,1.023191 0.6873,2.976553 0,1.948196 -0.6873,2.976554 -0.68213,1.02319 -1.9792,1.02319 -1.29707,0 -1.98437,-1.02319 -0.68213,-1.028358 -0.68213,-2.976554 0,-1.953362 0.68213,-2.976553 0.6873,-1.028357 1.98437,-1.028357 z"
         style="fill:#0000ff;stroke-width:0.264583"
         id="path1816" />
      <path
         d="m 160.59541,57.066304 q -0.80615,0 -1.2144,0.795815 -0.40307,0.790646 -0.40307,2.382275 0,1.586462 0.40307,2.382276 0.40825,0.790647 1.2144,0.790647 0.81131,0 1.21439,-0.790647 0.40824,-0.795814 0.40824,-2.382276 0,-1.591629 -0.40824,-2.382275 -0.40308,-0.795815 -1.21439,-0.795815 z m 0,-0.82682 q 1.29707,0 1.9792,1.028357 0.68729,1.023191 0.68729,2.976553 0,1.948196 -0.68729,2.976554 -0.68213,1.02319 -1.9792,1.02319 -1.29708,0 -1.98437,-1.02319 -0.68213,-1.028358 -0.68213,-2.976554 0,-1.953362 0.68213,-2.976553 0.68729,-1.028357 1.98437,-1.028357 z"
         style="fill:#0000ff;stroke-width:0.264583"
         id="path1818" />
      <path
         d="m 167.33399,57.066304 q -0.80615,0 -1.21439,0.795815 -0.40307,0.790646 -0.40307,2.382275 0,1.586462 0.40307,2.382276 0.40824,0.790647 1.21439,0.790647 0.81132,0 1.2144,-0.790647 0.40824,-0.795814 0.40824,-2.382276 0,-1.591629 -0.40824,-2.382275 -0.40308,-0.795815 -1.2144,-0.795815 z m 0,-0.82682 q 1.29708,0 1.9792,1.028357 0.6873,1.023191 0.6873,2.976553 0,1.948196 -0.6873,2.976554 -0.68212,1.02319 -1.9792,1.02319 -1.29707,0 -1.98437,-1.02319 -0.68212,-1.028358 -0.68212,-2.976554 0,-1.953362 0.68212,-2.976553 0.6873,-1.028357 1.98437,-1.028357 z"
         style="fill:#0000ff;stroke-width:0.264583"
         id="path1820" />
      <path
         d="m 174.07258,57.066304 q -0.80615,0 -1.21439,0.795815 -0.40308,0.790646 -0.40308,2.382275 0,1.586462 0.40308,2.382276 0.40824,0.790647 1.21439,0.790647 0.81132,0 1.21439,-0.790647 0.40824,-0.795814 0.40824,-2.382276 0,-1.591629 -0.40824,-2.382275 -0.40307,-0.795815 -1.21439,-0.795815 z m 0,-0.82682 q 1.29707,0 1.9792,1.028357 0.68729,1.023191 0.68729,2.976553 0,1.948196 -0.68729,2.976554 -0.68213,1.02319 -1.9792,1.02319 -1.29708,0 -1.98437,-1.02319 -0.68213,-1.028358 -0.68213,-2.976554 0,-1.953362 0.68213,-2.976553 0.68729,-1.028357 1.98437,-1.028357 z"
         style="fill:#0000ff;stroke-width:0.264583"
         id="path1822" />
      <path
         d="m 180.81117,57.066304 q -0.80615,0 -1.2144,0.795815 -0.40307,0.790646 -0.40307,2.382275 0,1.586462 0.40307,2.382276 0.40825,0.790647 1.2144,0.790647 0.81131,0 1.21439,-0.790647 0.40824,-0.795814 0.40824,-2.382276 0,-1.591629 -0.40824,-2.382275 -0.40308,-0.795815 -1.21439,-0.795815 z m 0,-0.82682 q 1.29707,0 1.9792,1.028357 0.68729,1.023191 0.68729,2.976553 0,1.948196 -0.68729,2.976554 -0.68213,1.02319 -1.9792,1.02319 -1.29708,0 -1.98437,-1.02319 -0.68213,-1.028358 -0.68213,-2.976554 0,-1.953362 0.68213,-2.976553 0.68729,-1.028357 1.98437,-1.028357 z"
         style="fill:#0000ff;stroke-width:0.264583"
         id="path1824" />
      <path
         d="m 187.54975,57.066304 q -0.80615,0 -1.21439,0.795815 -0.40308,0.790646 -0.40308,2.382275 0,1.586462 0.40308,2.382276 0.40824,0.790647 1.21439,0.790647 0.81132,0 1.21439,-0.790647 0.40825,-0.795814 0.40825,-2.382276 0,-1.591629 -0.40825,-2.382275 -0.40307,-0.795815 -1.21439,-0.795815 z m 0,-0.82682 q 1.29708,0 1.9792,1.028357 0.6873,1.023191 0.6873,2.976553 0,1.948196 -0.6873,2.976554 -0.68212,1.02319 -1.9792,1.02319 -1.29707,0 -1.98437,-1.02319 -0.68212,-1.028358 -0.68212,-2.976554 0,-1.953362 0.68212,-2.976553 0.6873,-1.028357 1.98437,-1.028357 z"
         style="fill:#0000ff;stroke-width:0.264583"
         id="path1826" />
      <path
         d="m 194.28834,57.066304 q -0.80615,0 -1.21439,0.795815 -0.40308,0.790646 -0.40308,2.382275 0,1.586462 0.40308,2.382276 0.40824,0.790647 1.21439,0.790647 0.81132,0 1.21439,-0.790647 0.40824,-0.795814 0.40824,-2.382276 0,-1.591629 -0.40824,-2.382275 -0.40307,-0.795815 -1.21439,-0.795815 z m 0,-0.82682 q 1.29707,0 1.9792,1.028357 0.68729,1.023191 0.68729,2.976553 0,1.948196 -0.68729,2.976554 -0.68213,1.02319 -1.9792,1.02319 -1.29708,0 -1.98437,-1.02319 -0.68213,-1.028358 -0.68213,-2.976554 0,-1.953362 0.68213,-2.976553 0.68729,-1.028357 1.98437,-1.028357 z"
         style="fill:#0000ff;stroke-width:0.264583"
         id="path1828" />
      <path
         d="m 198.97538,63.21578 h 1.70531 v -5.885927 l -1.85517,0.372069 v -0.950843 l 1.84484,-0.372069 h 1.04386 v 6.83677 h 1.70532 v 0.878496 h -4.44416 z"
         style="fill:#0000ff;stroke-width:0.264583"
         id="path1830" />
    </g>
    <text
       xml:space="preserve"
       style="font-style:normal;font-weight:normal;font-size:10.5833px;line-height:1.25;font-family:sans-serif;fill:#000000;fill-opacity:1;stroke:none;stroke-width:0.264583"
       x="10.336855"
       y="38.315174"
       id="text843"><tspan
         sodipodi:role="line"
         id="tspan841"
         x="10.336855"
         y="38.315174"
         style="font-style:normal;font-variant:normal;font-weight:bold;font-stretch:normal;font-family:sans-serif;-inkscape-font-specification:'sans-serif Bold';stroke-width:0.264583">Dirección IP en binario: 32 bits</tspan></text>
    <g
       aria-label="00011110.00110010.01100100.00000001"
       id="text865"
       style="font-style:normal;font-weight:normal;font-size:10.5833px;line-height:1.25;font-family:sans-serif;fill:#0000ff;fill-opacity:1;stroke:none;stroke-width:0.264583">
      <path
         d="m -4.6595642,118.28178 q -0.8061498,0 -1.2143923,0.79582 -0.4030749,0.79064 -0.4030749,2.38227 0,1.58646 0.4030749,2.38228 0.4082425,0.79064 1.2143923,0.79064 0.8113174,0 1.2143923,-0.79064 0.4082425,-0.79582 0.4082425,-2.38228 0,-1.59163 -0.4082425,-2.38227 -0.4030749,-0.79582 -1.2143923,-0.79582 z m 0,-0.82682 q 1.2970743,0 1.979201,1.02836 0.6872944,1.02319 0.6872944,2.97655 0,1.9482 -0.6872944,2.97655 -0.6821267,1.02319 -1.979201,1.02319 -1.2970744,0 -1.9843687,-1.02319 -0.6821268,-1.02835 -0.6821268,-2.97655 0,-1.95336 0.6821268,-2.97655 0.6872943,-1.02836 1.9843687,-1.02836 z"
         style="fill:#0000ff;stroke-width:0.264583"
         id="path1833" />
      <path
         d="m 2.0790212,118.28178 q -0.8061497,0 -1.21439226,0.79582 -0.40307489,0.79064 -0.40307489,2.38227 0,1.58646 0.40307489,2.38228 0.40824256,0.79064 1.21439226,0.79064 0.8113174,0 1.2143923,-0.79064 0.4082425,-0.79582 0.4082425,-2.38228 0,-1.59163 -0.4082425,-2.38227 -0.4030749,-0.79582 -1.2143923,-0.79582 z m 0,-0.82682 q 1.2970744,0 1.9792011,1.02836 0.6872943,1.02319 0.6872943,2.97655 0,1.9482 -0.6872943,2.97655 -0.6821267,1.02319 -1.9792011,1.02319 -1.29707429,0 -1.98436865,-1.02319 -0.68212673,-1.02835 -0.68212673,-2.97655 0,-1.95336 0.68212673,-2.97655 0.68729436,-1.02836 1.98436865,-1.02836 z"
         style="fill:#0000ff;stroke-width:0.264583"
         id="path1835" />
      <path
         d="m 8.8176067,118.28178 q -0.8061498,0 -1.2143923,0.79582 -0.4030749,0.79064 -0.4030749,2.38227 0,1.58646 0.4030749,2.38228 0.4082425,0.79064 1.2143923,0.79064 0.8113174,0 1.2143923,-0.79064 0.408243,-0.79582 0.408243,-2.38228 0,-1.59163 -0.408243,-2.38227 -0.4030749,-0.79582 -1.2143923,-0.79582 z m 0,-0.82682 q 1.2970743,0 1.9792013,1.02836 0.687294,1.02319 0.687294,2.97655 0,1.9482 -0.687294,2.97655 -0.682127,1.02319 -1.9792013,1.02319 -1.2970743,0 -1.9843687,-1.02319 -0.6821267,-1.02835 -0.6821267,-2.97655 0,-1.95336 0.6821267,-2.97655 0.6872944,-1.02836 1.9843687,-1.02836 z"
         style="fill:#0000ff;stroke-width:0.264583"
         id="path1837" />
      <path
         d="m 13.504643,124.43126 h 1.705317 v -5.88593 l -1.855178,0.37207 v -0.95084 l 1.844843,-0.37207 h 1.043861 v 6.83677 h 1.705316 v 0.87849 h -4.444159 z"
         style="fill:#0000ff;stroke-width:0.264583"
         id="path1839" />
      <path
         d="m 20.24323,124.43126 h 1.705317 v -5.88593 l -1.855178,0.37207 v -0.95084 l 1.844842,-0.37207 h 1.043861 v 6.83677 h 1.705317 v 0.87849 H 20.24323 Z"
         style="fill:#0000ff;stroke-width:0.264583"
         id="path1841" />
      <path
         d="m 26.981816,124.43126 h 1.705317 v -5.88593 l -1.855178,0.37207 v -0.95084 l 1.844843,-0.37207 h 1.04386 v 6.83677 h 1.705317 v 0.87849 h -4.444159 z"
         style="fill:#0000ff;stroke-width:0.264583"
         id="path1843" />
      <path
         d="m 33.720399,124.43126 h 1.705317 v -5.88593 l -1.855178,0.37207 v -0.95084 l 1.844842,-0.37207 h 1.043861 v 6.83677 h 1.705317 v 0.87849 h -4.444159 z"
         style="fill:#0000ff;stroke-width:0.264583"
         id="path1845" />
      <path
         d="m 42.510533,118.28178 q -0.80615,0 -1.214392,0.79582 -0.403075,0.79064 -0.403075,2.38227 0,1.58646 0.403075,2.38228 0.408242,0.79064 1.214392,0.79064 0.811318,0 1.214392,-0.79064 0.408243,-0.79582 0.408243,-2.38228 0,-1.59163 -0.408243,-2.38227 -0.403074,-0.79582 -1.214392,-0.79582 z m 0,-0.82682 q 1.297074,0 1.979201,1.02836 0.687295,1.02319 0.687295,2.97655 0,1.9482 -0.687295,2.97655 -0.682127,1.02319 -1.979201,1.02319 -1.297074,0 -1.984369,-1.02319 -0.682126,-1.02835 -0.682126,-2.97655 0,-1.95336 0.682126,-2.97655 0.687295,-1.02836 1.984369,-1.02836 z"
         style="fill:#0000ff;stroke-width:0.264583"
         id="path1847" />
      <path
         d="m 47.016705,123.99718 h 1.090369 v 1.31257 h -1.090369 z"
         style="fill:#000000"
         id="path1849" />
      <path
         d="m 52.618413,118.28178 q -0.80615,0 -1.214393,0.79582 -0.403074,0.79064 -0.403074,2.38227 0,1.58646 0.403074,2.38228 0.408243,0.79064 1.214393,0.79064 0.811317,0 1.214392,-0.79064 0.408243,-0.79582 0.408243,-2.38228 0,-1.59163 -0.408243,-2.38227 -0.403075,-0.79582 -1.214392,-0.79582 z m 0,-0.82682 q 1.297074,0 1.979201,1.02836 0.687294,1.02319 0.687294,2.97655 0,1.9482 -0.687294,2.97655 -0.682127,1.02319 -1.979201,1.02319 -1.297075,0 -1.984369,-1.02319 -0.682127,-1.02835 -0.682127,-2.97655 0,-1.95336 0.682127,-2.97655 0.687294,-1.02836 1.984369,-1.02836 z"
         style="fill:#0000ff;stroke-width:0.264583"
         id="path1851" />
      <path
         d="m 59.356999,118.28178 q -0.80615,0 -1.214392,0.79582 -0.403075,0.79064 -0.403075,2.38227 0,1.58646 0.403075,2.38228 0.408242,0.79064 1.214392,0.79064 0.811318,0 1.214392,-0.79064 0.408243,-0.79582 0.408243,-2.38228 0,-1.59163 -0.408243,-2.38227 -0.403074,-0.79582 -1.214392,-0.79582 z m 0,-0.82682 q 1.297074,0 1.979201,1.02836 0.687295,1.02319 0.687295,2.97655 0,1.9482 -0.687295,2.97655 -0.682127,1.02319 -1.979201,1.02319 -1.297074,0 -1.984369,-1.02319 -0.682126,-1.02835 -0.682126,-2.97655 0,-1.95336 0.682126,-2.97655 0.687295,-1.02836 1.984369,-1.02836 z"
         style="fill:#0000ff;stroke-width:0.264583"
         id="path1853" />
      <path
         d="m 64.044038,124.43126 h 1.705317 v -5.88593 l -1.855178,0.37207 v -0.95084 l 1.844842,-0.37207 h 1.043861 v 6.83677 h 1.705317 v 0.87849 h -4.444159 z"
         style="fill:#0000ff;stroke-width:0.264583"
         id="path1855" />
      <path
         d="m 70.782624,124.43126 h 1.705317 v -5.88593 l -1.855178,0.37207 v -0.95084 l 1.844843,-0.37207 h 1.04386 v 6.83677 h 1.705317 v 0.87849 h -4.444159 z"
         style="fill:#0000ff;stroke-width:0.264583"
         id="path1857" />
      <path
         d="m 79.572751,118.28178 q -0.80615,0 -1.214392,0.79582 -0.403075,0.79064 -0.403075,2.38227 0,1.58646 0.403075,2.38228 0.408242,0.79064 1.214392,0.79064 0.811317,0 1.214392,-0.79064 0.408243,-0.79582 0.408243,-2.38228 0,-1.59163 -0.408243,-2.38227 -0.403075,-0.79582 -1.214392,-0.79582 z m 0,-0.82682 q 1.297074,0 1.979201,1.02836 0.687294,1.02319 0.687294,2.97655 0,1.9482 -0.687294,2.97655 -0.682127,1.02319 -1.979201,1.02319 -1.297074,0 -1.984369,-1.02319 -0.682127,-1.02835 -0.682127,-2.97655 0,-1.95336 0.682127,-2.97655 0.687295,-1.02836 1.984369,-1.02836 z"
         style="fill:#0000ff;stroke-width:0.264583"
         id="path1859" />
      <path
         d="m 86.311337,118.28178 q -0.80615,0 -1.214392,0.79582 -0.403075,0.79064 -0.403075,2.38227 0,1.58646 0.403075,2.38228 0.408242,0.79064 1.214392,0.79064 0.811318,0 1.214393,-0.79064 0.408242,-0.79582 0.408242,-2.38228 0,-1.59163 -0.408242,-2.38227 -0.403075,-0.79582 -1.214393,-0.79582 z m 0,-0.82682 q 1.297075,0 1.979201,1.02836 0.687295,1.02319 0.687295,2.97655 0,1.9482 -0.687295,2.97655 -0.682126,1.02319 -1.979201,1.02319 -1.297074,0 -1.984368,-1.02319 -0.682127,-1.02835 -0.682127,-2.97655 0,-1.95336 0.682127,-2.97655 0.687294,-1.02836 1.984368,-1.02836 z"
         style="fill:#0000ff;stroke-width:0.264583"
         id="path1861" />
      <path
         d="m 90.998376,124.43126 h 1.705317 v -5.88593 l -1.855178,0.37207 v -0.95084 l 1.844842,-0.37207 h 1.043861 v 6.83677 h 1.705317 v 0.87849 h -4.444159 z"
         style="fill:#0000ff;stroke-width:0.264583"
         id="path1863" />
      <path
         d="m 99.78851,118.28178 q -0.80615,0 -1.214392,0.79582 -0.403075,0.79064 -0.403075,2.38227 0,1.58646 0.403075,2.38228 0.408242,0.79064 1.214392,0.79064 0.81132,0 1.21439,-0.79064 0.40824,-0.79582 0.40824,-2.38228 0,-1.59163 -0.40824,-2.38227 -0.40307,-0.79582 -1.21439,-0.79582 z m 0,-0.82682 q 1.29707,0 1.9792,1.02836 0.6873,1.02319 0.6873,2.97655 0,1.9482 -0.6873,2.97655 -0.68213,1.02319 -1.9792,1.02319 -1.297074,0 -1.984369,-1.02319 -0.682126,-1.02835 -0.682126,-2.97655 0,-1.95336 0.682126,-2.97655 0.687295,-1.02836 1.984369,-1.02836 z"
         style="fill:#0000ff;stroke-width:0.264583"
         id="path1865" />
      <path
         d="m 104.29468,123.99718 h 1.09037 v 1.31257 h -1.09037 z"
         style="fill:#000000"
         id="path1867" />
      <path
         d="m 109.89639,118.28178 q -0.80615,0 -1.21439,0.79582 -0.40308,0.79064 -0.40308,2.38227 0,1.58646 0.40308,2.38228 0.40824,0.79064 1.21439,0.79064 0.81132,0 1.21439,-0.79064 0.40824,-0.79582 0.40824,-2.38228 0,-1.59163 -0.40824,-2.38227 -0.40307,-0.79582 -1.21439,-0.79582 z m 0,-0.82682 q 1.29707,0 1.9792,1.02836 0.6873,1.02319 0.6873,2.97655 0,1.9482 -0.6873,2.97655 -0.68213,1.02319 -1.9792,1.02319 -1.29707,0 -1.98437,-1.02319 -0.68213,-1.02835 -0.68213,-2.97655 0,-1.95336 0.68213,-2.97655 0.6873,-1.02836 1.98437,-1.02836 z"
         style="fill:#0000ff;stroke-width:0.264583"
         id="path1869" />
      <path
         d="m 114.58343,124.43126 h 1.70532 v -5.88593 l -1.85518,0.37207 v -0.95084 l 1.84484,-0.37207 h 1.04386 v 6.83677 h 1.70532 v 0.87849 h -4.44416 z"
         style="fill:#0000ff;stroke-width:0.264583"
         id="path1871" />
      <path
         d="m 121.32201,124.43126 h 1.70532 v -5.88593 l -1.85518,0.37207 v -0.95084 l 1.84485,-0.37207 h 1.04386 v 6.83677 h 1.70531 v 0.87849 h -4.44416 z"
         style="fill:#0000ff;stroke-width:0.264583"
         id="path1873" />
      <path
         d="m 130.11215,118.28178 q -0.80615,0 -1.21439,0.79582 -0.40308,0.79064 -0.40308,2.38227 0,1.58646 0.40308,2.38228 0.40824,0.79064 1.21439,0.79064 0.81132,0 1.21439,-0.79064 0.40824,-0.79582 0.40824,-2.38228 0,-1.59163 -0.40824,-2.38227 -0.40307,-0.79582 -1.21439,-0.79582 z m 0,-0.82682 q 1.29707,0 1.9792,1.02836 0.68729,1.02319 0.68729,2.97655 0,1.9482 -0.68729,2.97655 -0.68213,1.02319 -1.9792,1.02319 -1.29708,0 -1.98437,-1.02319 -0.68213,-1.02835 -0.68213,-2.97655 0,-1.95336 0.68213,-2.97655 0.68729,-1.02836 1.98437,-1.02836 z"
         style="fill:#0000ff;stroke-width:0.264583"
         id="path1875" />
      <path
         d="m 136.85074,118.28178 q -0.80615,0 -1.2144,0.79582 -0.40307,0.79064 -0.40307,2.38227 0,1.58646 0.40307,2.38228 0.40825,0.79064 1.2144,0.79064 0.81131,0 1.21439,-0.79064 0.40824,-0.79582 0.40824,-2.38228 0,-1.59163 -0.40824,-2.38227 -0.40308,-0.79582 -1.21439,-0.79582 z m 0,-0.82682 q 1.29707,0 1.9792,1.02836 0.68729,1.02319 0.68729,2.97655 0,1.9482 -0.68729,2.97655 -0.68213,1.02319 -1.9792,1.02319 -1.29708,0 -1.98437,-1.02319 -0.68213,-1.02835 -0.68213,-2.97655 0,-1.95336 0.68213,-2.97655 0.68729,-1.02836 1.98437,-1.02836 z"
         style="fill:#0000ff;stroke-width:0.264583"
         id="path1877" />
      <path
         d="m 141.53777,124.43126 h 1.70532 v -5.88593 l -1.85518,0.37207 v -0.95084 l 1.84485,-0.37207 h 1.04386 v 6.83677 h 1.70531 v 0.87849 h -4.44416 z"
         style="fill:#0000ff;stroke-width:0.264583"
         id="path1879" />
      <path
         d="m 150.32791,118.28178 q -0.80615,0 -1.21439,0.79582 -0.40308,0.79064 -0.40308,2.38227 0,1.58646 0.40308,2.38228 0.40824,0.79064 1.21439,0.79064 0.81132,0 1.21439,-0.79064 0.40824,-0.79582 0.40824,-2.38228 0,-1.59163 -0.40824,-2.38227 -0.40307,-0.79582 -1.21439,-0.79582 z m 0,-0.82682 q 1.29707,0 1.9792,1.02836 0.68729,1.02319 0.68729,2.97655 0,1.9482 -0.68729,2.97655 -0.68213,1.02319 -1.9792,1.02319 -1.29708,0 -1.98437,-1.02319 -0.68213,-1.02835 -0.68213,-2.97655 0,-1.95336 0.68213,-2.97655 0.68729,-1.02836 1.98437,-1.02836 z"
         style="fill:#0000ff;stroke-width:0.264583"
         id="path1881" />
      <path
         d="m 157.06648,118.28178 q -0.80615,0 -1.21439,0.79582 -0.40308,0.79064 -0.40308,2.38227 0,1.58646 0.40308,2.38228 0.40824,0.79064 1.21439,0.79064 0.81132,0 1.21439,-0.79064 0.40824,-0.79582 0.40824,-2.38228 0,-1.59163 -0.40824,-2.38227 -0.40307,-0.79582 -1.21439,-0.79582 z m 0,-0.82682 q 1.29707,0 1.9792,1.02836 0.68729,1.02319 0.68729,2.97655 0,1.9482 -0.68729,2.97655 -0.68213,1.02319 -1.9792,1.02319 -1.29707,0 -1.98437,-1.02319 -0.68213,-1.02835 -0.68213,-2.97655 0,-1.95336 0.68213,-2.97655 0.6873,-1.02836 1.98437,-1.02836 z"
         style="fill:#0000ff;stroke-width:0.264583"
         id="path1883" />
      <path
         d="m 161.57265,123.99718 h 1.09037 v 1.31257 h -1.09037 z"
         style="fill:#000000"
         id="path1885" />
      <path
         d="m 167.17436,118.28178 q -0.80615,0 -1.21439,0.79582 -0.40308,0.79064 -0.40308,2.38227 0,1.58646 0.40308,2.38228 0.40824,0.79064 1.21439,0.79064 0.81132,0 1.21439,-0.79064 0.40824,-0.79582 0.40824,-2.38228 0,-1.59163 -0.40824,-2.38227 -0.40307,-0.79582 -1.21439,-0.79582 z m 0,-0.82682 q 1.29707,0 1.9792,1.02836 0.68729,1.02319 0.68729,2.97655 0,1.9482 -0.68729,2.97655 -0.68213,1.02319 -1.9792,1.02319 -1.29708,0 -1.98437,-1.02319 -0.68213,-1.02835 -0.68213,-2.97655 0,-1.95336 0.68213,-2.97655 0.68729,-1.02836 1.98437,-1.02836 z"
         style="fill:#0000ff;stroke-width:0.264583"
         id="path1887" />
      <path
         d="m 173.91295,118.28178 q -0.80615,0 -1.2144,0.79582 -0.40307,0.79064 -0.40307,2.38227 0,1.58646 0.40307,2.38228 0.40825,0.79064 1.2144,0.79064 0.81131,0 1.21439,-0.79064 0.40824,-0.79582 0.40824,-2.38228 0,-1.59163 -0.40824,-2.38227 -0.40308,-0.79582 -1.21439,-0.79582 z m 0,-0.82682 q 1.29707,0 1.9792,1.02836 0.68729,1.02319 0.68729,2.97655 0,1.9482 -0.68729,2.97655 -0.68213,1.02319 -1.9792,1.02319 -1.29708,0 -1.98437,-1.02319 -0.68213,-1.02835 -0.68213,-2.97655 0,-1.95336 0.68213,-2.97655 0.68729,-1.02836 1.98437,-1.02836 z"
         style="fill:#0000ff;stroke-width:0.264583"
         id="path1889" />
      <path
         d="m 180.65153,118.28178 q -0.80615,0 -1.21439,0.79582 -0.40308,0.79064 -0.40308,2.38227 0,1.58646 0.40308,2.38228 0.40824,0.79064 1.21439,0.79064 0.81132,0 1.21439,-0.79064 0.40825,-0.79582 0.40825,-2.38228 0,-1.59163 -0.40825,-2.38227 -0.40307,-0.79582 -1.21439,-0.79582 z m 0,-0.82682 q 1.29708,0 1.9792,1.02836 0.6873,1.02319 0.6873,2.97655 0,1.9482 -0.6873,2.97655 -0.68212,1.02319 -1.9792,1.02319 -1.29707,0 -1.98437,-1.02319 -0.68212,-1.02835 -0.68212,-2.97655 0,-1.95336 0.68212,-2.97655 0.6873,-1.02836 1.98437,-1.02836 z"
         style="fill:#0000ff;stroke-width:0.264583"
         id="path1891" />
      <path
         d="m 187.39012,118.28178 q -0.80615,0 -1.21439,0.79582 -0.40308,0.79064 -0.40308,2.38227 0,1.58646 0.40308,2.38228 0.40824,0.79064 1.21439,0.79064 0.81132,0 1.21439,-0.79064 0.40824,-0.79582 0.40824,-2.38228 0,-1.59163 -0.40824,-2.38227 -0.40307,-0.79582 -1.21439,-0.79582 z m 0,-0.82682 q 1.29707,0 1.9792,1.02836 0.68729,1.02319 0.68729,2.97655 0,1.9482 -0.68729,2.97655 -0.68213,1.02319 -1.9792,1.02319 -1.29708,0 -1.98437,-1.02319 -0.68213,-1.02835 -0.68213,-2.97655 0,-1.95336 0.68213,-2.97655 0.68729,-1.02836 1.98437,-1.02836 z"
         style="fill:#0000ff;stroke-width:0.264583"
         id="path1893" />
      <path
         d="m 194.1287,118.28178 q -0.80614,0 -1.21439,0.79582 -0.40307,0.79064 -0.40307,2.38227 0,1.58646 0.40307,2.38228 0.40825,0.79064 1.21439,0.79064 0.81132,0 1.2144,-0.79064 0.40824,-0.79582 0.40824,-2.38228 0,-1.59163 -0.40824,-2.38227 -0.40308,-0.79582 -1.2144,-0.79582 z m 0,-0.82682 q 1.29708,0 1.97921,1.02836 0.68729,1.02319 0.68729,2.97655 0,1.9482 -0.68729,2.97655 -0.68213,1.02319 -1.97921,1.02319 -1.29707,0 -1.98436,-1.02319 -0.68213,-1.02835 -0.68213,-2.97655 0,-1.95336 0.68213,-2.97655 0.68729,-1.02836 1.98436,-1.02836 z"
         style="fill:#0000ff;stroke-width:0.264583"
         id="path1895" />
      <path
         d="m 200.86729,118.28178 q -0.80615,0 -1.21439,0.79582 -0.40308,0.79064 -0.40308,2.38227 0,1.58646 0.40308,2.38228 0.40824,0.79064 1.21439,0.79064 0.81132,0 1.21439,-0.79064 0.40825,-0.79582 0.40825,-2.38228 0,-1.59163 -0.40825,-2.38227 -0.40307,-0.79582 -1.21439,-0.79582 z m 0,-0.82682 q 1.29708,0 1.9792,1.02836 0.6873,1.02319 0.6873,2.97655 0,1.9482 -0.6873,2.97655 -0.68212,1.02319 -1.9792,1.02319 -1.29707,0 -1.98437,-1.02319 -0.68212,-1.02835 -0.68212,-2.97655 0,-1.95336 0.68212,-2.97655 0.6873,-1.02836 1.98437,-1.02836 z"
         style="fill:#0000ff;stroke-width:0.264583"
         id="path1897" />
      <path
         d="m 207.60588,118.28178 q -0.80615,0 -1.21439,0.79582 -0.40308,0.79064 -0.40308,2.38227 0,1.58646 0.40308,2.38228 0.40824,0.79064 1.21439,0.79064 0.81132,0 1.21439,-0.79064 0.40824,-0.79582 0.40824,-2.38228 0,-1.59163 -0.40824,-2.38227 -0.40307,-0.79582 -1.21439,-0.79582 z m 0,-0.82682 q 1.29707,0 1.9792,1.02836 0.68729,1.02319 0.68729,2.97655 0,1.9482 -0.68729,2.97655 -0.68213,1.02319 -1.9792,1.02319 -1.29708,0 -1.98437,-1.02319 -0.68213,-1.02835 -0.68213,-2.97655 0,-1.95336 0.68213,-2.97655 0.68729,-1.02836 1.98437,-1.02836 z"
         style="fill:#0000ff;stroke-width:0.264583"
         id="path1899" />
      <path
         d="m 212.29292,124.43126 h 1.70531 v -5.88593 l -1.85517,0.37207 v -0.95084 l 1.84484,-0.37207 h 1.04386 v 6.83677 h 1.70532 v 0.87849 h -4.44416 z"
         style="fill:#0000ff;stroke-width:0.264583"
         id="path1901" />
    </g>
    <path
       style="fill:none;stroke:#000000;stroke-width:0.79375;stroke-linecap:butt;stroke-linejoin:miter;stroke-miterlimit:4;stroke-dasharray:none;stroke-opacity:1;marker-end:url(#Arrow2Mend)"
       d="M 94.918967,67.409668 21.271398,112.77142"
       id="path873" />
    <path
       style="fill:none;stroke:#000000;stroke-width:0.79375;stroke-linecap:butt;stroke-linejoin:miter;stroke-miterlimit:4;stroke-dasharray:none;stroke-opacity:1;marker-end:url(#marker1173)"
       d="M 94.918967,67.409668 79.502155,112.77142"
       id="path1169"
       sodipodi:nodetypes="cc" />
    <path
       style="fill:none;stroke:#000000;stroke-width:0.79375;stroke-linecap:butt;stroke-linejoin:miter;stroke-miterlimit:4;stroke-dasharray:none;stroke-opacity:1;marker-end:url(#marker1213)"
       d="M 94.918967,67.409668 129.39178,112.77142"
       id="path1209"
       sodipodi:nodetypes="cc" />
    <path
       style="fill:none;stroke:#000000;stroke-width:0.79375;stroke-linecap:butt;stroke-linejoin:miter;stroke-miterlimit:4;stroke-dasharray:none;stroke-opacity:1;marker-end:url(#marker1261)"
       d="M 94.918967,67.409668 187.49861,112.77142"
       id="path1257"
       sodipodi:nodetypes="cc" />
    <text
       xml:space="preserve"
       style="font-style:normal;font-weight:normal;font-size:7.47113px;line-height:1.25;font-family:sans-serif;fill:#000000;fill-opacity:1;stroke:none;stroke-width:0.264583"
       x="189.39977"
       y="85.592415"
       id="text1315"><tspan
         sodipodi:role="line"
         id="tspan1313"
         x="189.39977"
         y="85.592415"
         style="font-style:normal;font-variant:normal;font-weight:normal;font-stretch:normal;font-family:sans-serif;-inkscape-font-specification:sans-serif;text-align:center;text-anchor:middle;stroke-width:0.264583">Separación en</tspan><tspan
         sodipodi:role="line"
         x="189.39977"
         y="94.931328"
         style="font-style:normal;font-variant:normal;font-weight:normal;font-stretch:normal;font-family:sans-serif;-inkscape-font-specification:sans-serif;text-align:center;text-anchor:middle;stroke-width:0.264583"
         id="tspan1317">4 bytes</tspan></text>
    <text
       xml:space="preserve"
       id="text1319"
       style="font-style:normal;font-weight:normal;font-size:10.5833px;line-height:1.25;font-family:sans-serif;white-space:pre;shape-inside:url(#rect1321);fill:#000000;fill-opacity:1;stroke:none;" />
    <text
       xml:space="preserve"
       id="text1325"
       style="font-style:normal;font-weight:normal;font-size:10.5833px;line-height:1.25;font-family:sans-serif;white-space:pre;shape-inside:url(#rect1327);fill:#000000;fill-opacity:1;stroke:none;" />
    <path
       style="fill:none;stroke:#000000;stroke-width:0.79375;stroke-linecap:butt;stroke-linejoin:miter;stroke-miterlimit:4;stroke-dasharray:none;stroke-opacity:1;marker-end:url(#marker1343)"
       d="m 22.143693,129.77671 23.823951,38.89451"
       id="path1339"
       sodipodi:nodetypes="cc" />
    <path
       style="fill:none;stroke:#000000;stroke-width:0.79375;stroke-linecap:butt;stroke-linejoin:miter;stroke-miterlimit:4;stroke-dasharray:none;stroke-opacity:1;marker-end:url(#marker1407)"
       d="m 77.866845,130.81522 -0.340055,37.3205"
       id="path1403"
       sodipodi:nodetypes="cc" />
    <path
       style="fill:none;stroke:#000000;stroke-width:0.79375;stroke-linecap:butt;stroke-linejoin:miter;stroke-miterlimit:4;stroke-dasharray:none;stroke-opacity:1;marker-end:url(#marker1485)"
       d="m 134.48505,130.81522 -17.42887,37.12126"
       id="path1481"
       sodipodi:nodetypes="cc" />
    <path
       style="fill:none;stroke:#000000;stroke-width:0.79375;stroke-linecap:butt;stroke-linejoin:miter;stroke-miterlimit:4;stroke-dasharray:none;stroke-opacity:1;marker-end:url(#marker1571)"
       d="m 189.27928,130.81522 -37.48041,35.13615"
       id="path1567"
       sodipodi:nodetypes="cc" />
    <text
       xml:space="preserve"
       style="font-style:normal;font-weight:normal;font-size:10.5833px;line-height:1.25;font-family:sans-serif;fill:#000000;fill-opacity:1;stroke:none;stroke-width:0.264583"
       x="20.963743"
       y="207.46938"
       id="text1657"><tspan
         sodipodi:role="line"
         id="tspan1655"
         x="20.963743"
         y="207.46938"
         style="font-style:normal;font-variant:normal;font-weight:bold;font-stretch:normal;font-family:sans-serif;-inkscape-font-specification:'sans-serif Bold';stroke-width:0.264583">Dirección IP en &quot;Humano&quot;</tspan></text>
    <text
       xml:space="preserve"
       style="font-style:normal;font-weight:normal;font-size:7.47113px;line-height:1.25;font-family:sans-serif;fill:#000000;fill-opacity:1;stroke:none;stroke-width:0.264583"
       x="212.46555"
       y="179.55692"
       id="text1663"><tspan
         sodipodi:role="line"
         x="212.46555"
         y="179.55692"
         style="font-style:normal;font-variant:normal;font-weight:normal;font-stretch:normal;font-family:sans-serif;-inkscape-font-specification:sans-serif;text-align:center;text-anchor:middle;stroke-width:0.264583"
         id="tspan1661">Conversión de cada </tspan><tspan
         sodipodi:role="line"
         x="212.46555"
         y="188.89583"
         style="font-style:normal;font-variant:normal;font-weight:normal;font-stretch:normal;font-family:sans-serif;-inkscape-font-specification:sans-serif;text-align:center;text-anchor:middle;stroke-width:0.264583"
         id="tspan1667">byte a decimal</tspan></text>
  </g>
</svg>
